<?xml version="1.0" encoding="UTF-8" standalone="no"?>
<!-- Created with Inkscape (http://www.inkscape.org/) -->

<svg
   width="20.158625mm"
   height="6.5669603mm"
   viewBox="0 0 20.158625 6.5669603"
   version="1.1"
   id="svg1"
   xmlns="http://www.w3.org/2000/svg"
   xmlns:svg="http://www.w3.org/2000/svg">
  <defs
     id="defs1" />
  <g
     id="layer1"
     transform="translate(-46.454323,-82.81636)">
    <path
       style="font-size:20px;font-family:Comforter;-inkscape-font-specification:'Comforter, Normal';letter-spacing:1.47px;word-spacing:0.08px;white-space:pre;fill:#fefefe"
       d="m 182.79539,330.46672 q -0.74,0 -1.7,-0.12 -0.94,-0.12 -1.92,-0.36 -0.96,-0.24 -1.78,-0.6 -0.82,-0.36 -1.32,-0.86 -0.5,-0.48 -0.5,-1.08 0,-0.62 0.58,-1.28 0.68,-0.78 1.32,-1.58 0.66,-0.8 1.42,-1.52 0.76,-0.74 1.74,-1.32 -1.5,-0.78 -2.42,-1.92 -0.92,-1.16 -0.92,-2.28 0,-0.86 0.58,-1.58 0.6,-0.72 1.58,-1.26 0.98,-0.56 2.16,-0.92 1.2,-0.38 2.42,-0.58 1.24,-0.2 2.28,-0.2 0.54,0 1.02,0.04 0.48,0.04 0.84,0.14 0.18,0.04 0.32,0.36 0.16,0.3 0.24,0.64 0.08,0.34 0.08,0.5 v 0.08 q -0.24,0.34 -0.88,0.6 -0.64,0.26 -1.52,0.46 -0.88,0.18 -1.86,0.32 -0.98,0.14 -1.92,0.22 -0.94,0.08 -1.7,0.12 -0.76,0.04 -1.18,0.04 -0.44,0 -0.58,-0.04 -0.12,-0.06 -0.12,-0.12 0,-0.12 0.64,-0.18 0.64,-0.06 1.68,-0.14 1.04,-0.08 2.24,-0.24 1.2,-0.18 2.34,-0.52 1.16,-0.36 2,-0.98 -0.5,-0.04 -0.94,-0.04 -0.42,0 -0.82,0 -0.88,0 -1.62,0.08 -0.74,0.08 -1.52,0.26 -0.76,0.18 -1.7,0.5 -1.94,0.64 -2.7,1.38 -0.74,0.74 -0.74,1.56 0,0.62 0.42,1.26 0.42,0.64 1.12,1.2 0.72,0.56 1.58,0.98 0.26,-0.14 0.78,-0.36 0.54,-0.22 1.12,-0.44 0.58,-0.24 1.02,-0.38 0.46,-0.16 0.56,-0.16 0.34,0 0.52,0.28 0.2,0.28 0.2,0.6 0,0.32 -0.34,0.54 -0.34,0.22 -0.86,0.36 -0.52,0.14 -1.08,0.2 -0.56,0.06 -1,0.06 -1.26,0.54 -2.4,1.24 -1.12,0.68 -1.84,1.48 -0.7,0.8 -0.7,1.7 0,0.72 0.56,1.22 0.58,0.5 1.52,0.8 0.96,0.3 2.1,0.44 1.14,0.14 2.28,0.14 1.12,0 2,-0.14 0.9,-0.14 1.2,-0.34 0.18,0.02 0.18,0.12 0,0.1 -0.32,0.36 -0.3,0.26 -0.86,0.54 -0.54,0.3 -1.28,0.5 -0.74,0.22 -1.6,0.22 z m 6.43001,-3.12 q -0.3,0 -0.68,-0.08 -0.36,-0.1 -0.64,-0.24 -0.26,-0.16 -0.26,-0.3 0,-0.32 0.6,-0.32 0.34,0 0.8,-0.14 0.46,-0.14 0.84,-0.3 0.4,-0.18 0.52,-0.26 -0.08,-0.12 -0.38,-0.36 -0.3,-0.26 -0.66,-0.62 -0.36,-0.36 -0.64,-0.8 -0.26,-0.46 -0.26,-1 0,-0.56 0.3,-1.04 0.3,-0.5 0.74,-0.9 0.46,-0.42 0.92,-0.72 0.48,-0.32 0.82,-0.52 0.14,-0.08 0.3,-0.08 0.32,0 0.6,0.22 0.3,0.22 0.3,0.42 0,0.02 -0.04,0.1 -0.16,0.18 -0.36,0.56 -0.18,0.38 -0.32,0.8 -0.14,0.4 -0.14,0.74 0,0.38 -0.16,0.38 -0.08,0 -0.12,-0.16 -0.04,-0.16 -0.04,-0.3 0,-0.4 0.12,-0.86 0.14,-0.46 0.18,-0.66 -0.24,0 -0.66,0.32 -0.4,0.3 -0.82,0.76 -0.42,0.44 -0.72,0.9 -0.28,0.44 -0.28,0.72 0,0.38 0.26,0.7 0.26,0.3 0.64,0.56 0.4,0.26 0.74,0.56 0.2,-0.08 0.62,-0.28 0.42,-0.22 0.88,-0.44 0.48,-0.24 0.84,-0.4 0.38,-0.16 0.5,-0.16 0.04,0 0.04,0.02 0,0.14 -0.3,0.36 -0.3,0.22 -0.74,0.46 -0.44,0.24 -0.88,0.46 -0.42,0.22 -0.66,0.34 0.06,0.18 0.06,0.36 0,0.42 -0.3,0.68 -0.28,0.26 -0.72,0.4 -0.42,0.12 -0.84,0.12 z m 7.21002,10.48 q -0.14,0 -0.32,-0.04 -0.16,-0.04 -0.34,-0.14 -0.56,-0.32 -0.88,-1.04 -0.32,-0.7 -0.46,-1.68 -0.12,-0.98 -0.12,-2.04 0,-0.68 0.04,-1.36 0.04,-0.68 0.1,-1.32 l -0.3,0.06 q -0.08,0 -0.26,-0.16 -0.16,-0.16 -0.3,-0.36 -0.14,-0.18 -0.14,-0.26 0.04,-0.28 0.38,-0.64 0.34,-0.36 0.88,-0.76 0,-0.1 0.02,-0.16 0.12,-0.92 0.38,-2.08 0.26,-1.18 0.64,-2.46 0.38,-1.28 0.88,-2.48 -0.38,-0.3 -0.86,-0.44 -0.48,-0.14 -0.9,-0.18 -0.4,-0.04 -0.6,-0.04 -0.12,-0.02 -0.08,-0.14 0.06,-0.14 0.2,-0.26 0.16,-0.14 0.28,-0.14 0.58,0 1.18,0.08 0.6,0.08 1.16,0.24 l 0.22,-0.46 q -0.12,-0.2 -0.18,-0.4 -0.04,-0.2 -0.04,-0.38 0,-0.2 0.06,-0.32 0.14,-0.38 0.26,-0.6 0.14,-0.24 0.38,-0.16 0.34,0.1 0.6,0.36 0.28,0.26 0.2,0.52 -0.16,0.38 -0.34,0.82 -0.18,0.42 -0.34,0.88 1.12,0.38 2.04,1.02 0.94,0.64 1.56,1.4 0.48,0.64 0.46,1.34 l 0.64,-0.32 q 0.34,-0.18 0.52,-0.24 0.18,-0.08 0.26,-0.08 0.12,0 -0.02,0.16 -0.14,0.14 -0.38,0.32 -0.22,0.16 -0.4,0.26 l -0.68,0.34 q -0.1,0.56 -0.46,1.16 -0.34,0.6 -0.84,1.22 -0.62,0.76 -1.5,1.38 -0.88,0.6 -1.82,1.02 -0.92,0.44 -1.76,0.7 -0.24,1.76 -0.24,3.32 0,0.8 0.06,1.48 0.08,0.68 0.24,1.22 0.22,0.76 0.52,1.02 0.32,0.26 0.6,0.26 0.2,0 0.36,-0.08 0.18,-0.06 0.28,-0.12 0.16,-0.08 0.28,-0.08 0.12,0 0.12,0.1 0,0.04 -0.06,0.14 -0.08,0.1 -0.4,0.34 -0.32,0.26 -0.78,0.26 z m -0.52,-10.56 q 1.14,-0.72 2.44,-1.42 1.32,-0.7 2.36,-1.22 0.14,-0.36 0.14,-0.78 0,-0.7 -0.52,-1.32 -0.5,-0.64 -1.68,-1.14 -0.26,-0.1 -0.52,-0.2 -0.26,-0.12 -0.54,-0.2 -0.48,1.4 -0.92,3.02 -0.42,1.6 -0.76,3.26 z m -0.3,1.68 q 1.08,-0.46 1.88,-0.96 0.82,-0.52 1.8,-1.42 0.72,-0.66 1.12,-1.32 -0.88,0.48 -1.78,0.96 -0.88,0.48 -1.62,0.92 -0.74,0.42 -1.22,0.76 z m -1.46,0.54 q 0.1,-0.04 0.2,-0.08 0.1,-0.04 0.18,-0.06 l 0.08,-0.58 q -0.2,0.14 -0.34,0.32 -0.14,0.18 -0.12,0.4 z m 13.48999,-2.24 q -0.74,0 -1,-0.82 -0.26,-0.84 -0.26,-2.06 0,-0.66 0.04,-1.28 0.04,-0.64 0.06,-1.06 -0.32,-0.04 -0.62,-0.12 -0.28,-0.1 -0.44,-0.2 -0.02,0.14 -0.16,0.58 -0.14,0.42 -0.34,0.98 -0.18,0.56 -0.4,1.1 -0.22,0.54 -0.42,0.9 -0.2,0.34 -0.36,0.34 -0.08,0 -0.08,-0.12 0,-0.16 0.14,-0.44 0.4,-0.82 0.72,-1.68 0.32,-0.86 0.58,-1.78 -0.2,-0.08 -0.3,-0.28 -0.08,-0.22 -0.08,-0.48 0,-0.72 0.2,-1.18 0.22,-0.46 0.48,-0.68 0.26,-0.24 0.4,-0.24 0.24,0 0.24,0.4 0,0.2 -0.1,0.62 -0.1,0.4 -0.24,0.84 -0.14,0.42 -0.24,0.68 0,0 0.12,0.08 0.12,0.08 0.26,0.08 0.2,0 0.38,-0.24 0.2,-0.26 0.46,-0.5 0.28,-0.26 0.7,-0.26 0.22,0 0.38,0.06 0.16,0.04 0.16,0.16 v 0.06 q -0.2,0.5 -0.3,1.32 -0.1,0.8 -0.1,1.62 0,0.72 0.08,1.36 0.08,0.62 0.24,1 0.18,0.38 0.42,0.38 0.24,0 0.46,-0.26 0.22,-0.26 0.38,-0.56 0.18,-0.3 0.24,-0.44 0.42,-0.78 0.52,-1 0.1,-0.24 0.26,-0.24 0.06,0 0.06,0.08 0,0.04 -0.04,0.2 -0.24,0.66 -0.6,1.38 -0.34,0.7 -0.82,1.2 -0.48,0.5 -1.08,0.5 z m 5.45,0.74 q -0.68,0 -1.06,-0.44 -0.36,-0.44 -0.5,-1.12 -0.12,-0.7 -0.12,-1.4 0,-0.48 0.04,-0.9 0.04,-0.44 0.08,-0.76 0.1,-0.82 0.26,-1.58 0.16,-0.76 0.3,-1.3 0.16,-0.54 0.2,-0.7 0.08,-0.28 0.3,-0.28 0.22,0 0.5,0.3 0.28,0.28 0.4,0.46 0.46,0.14 0.9,0.34 0.44,0.18 0.72,0.4 0.3,0.22 0.3,0.48 0,0.5 -0.42,1 -0.42,0.5 -1.06,0.92 -0.64,0.42 -1.3,0.72 -0.06,0.48 -0.06,0.96 0,0.8 0.2,1.4 0.2,0.6 0.68,0.6 0.42,0 0.8,-0.3 0.4,-0.3 0.74,-0.76 0.34,-0.46 0.6,-0.92 0.28,-0.48 0.42,-0.8 0.04,-0.12 0.18,-0.12 0.08,0 0.08,0.18 0,0.16 -0.24,0.68 -0.24,0.48 -0.5,0.92 -0.24,0.42 -0.48,0.74 -0.34,0.44 -0.84,0.86 -0.48,0.42 -1.12,0.42 z m -0.4,-4.42 q 0.7,-0.38 1.24,-0.9 0.56,-0.54 0.56,-1.16 0,-0.22 -0.34,-0.44 -0.32,-0.24 -0.76,-0.4 -0.24,0.64 -0.42,1.36 -0.16,0.72 -0.28,1.54 z m 6.31002,3.78 q -0.3,0 -0.68,-0.08 -0.36,-0.1 -0.64,-0.24 -0.26,-0.16 -0.26,-0.3 0,-0.32 0.6,-0.32 0.34,0 0.8,-0.14 0.46,-0.14 0.84,-0.3 0.4,-0.18 0.52,-0.26 -0.08,-0.12 -0.38,-0.36 -0.3,-0.26 -0.66,-0.62 -0.36,-0.36 -0.64,-0.8 -0.26,-0.46 -0.26,-1 0,-0.56 0.3,-1.04 0.3,-0.5 0.74,-0.9 0.46,-0.42 0.92,-0.72 0.48,-0.32 0.82,-0.52 0.14,-0.08 0.3,-0.08 0.32,0 0.6,0.22 0.3,0.22 0.3,0.42 0,0.02 -0.04,0.1 -0.16,0.18 -0.36,0.56 -0.18,0.38 -0.32,0.8 -0.14,0.4 -0.14,0.74 0,0.38 -0.16,0.38 -0.08,0 -0.12,-0.16 -0.04,-0.16 -0.04,-0.3 0,-0.4 0.12,-0.86 0.14,-0.46 0.18,-0.66 -0.24,0 -0.66,0.32 -0.4,0.3 -0.82,0.76 -0.42,0.44 -0.72,0.9 -0.28,0.44 -0.28,0.72 0,0.38 0.26,0.7 0.26,0.3 0.64,0.56 0.4,0.26 0.74,0.56 0.2,-0.08 0.62,-0.28 0.42,-0.22 0.88,-0.44 0.48,-0.24 0.84,-0.4 0.38,-0.16 0.5,-0.16 0.04,0 0.04,0.02 0,0.14 -0.3,0.36 -0.3,0.22 -0.74,0.46 -0.44,0.24 -0.88,0.46 -0.42,0.22 -0.66,0.34 0.06,0.18 0.06,0.36 0,0.42 -0.3,0.68 -0.28,0.26 -0.72,0.4 -0.42,0.12 -0.84,0.12 z m 6.21003,0 q -0.3,0 -0.68,-0.08 -0.36,-0.1 -0.64,-0.24 -0.26,-0.16 -0.26,-0.3 0,-0.32 0.6,-0.32 0.34,0 0.8,-0.14 0.46,-0.14 0.84,-0.3 0.4,-0.18 0.52,-0.26 -0.08,-0.12 -0.38,-0.36 -0.3,-0.26 -0.66,-0.62 -0.36,-0.36 -0.64,-0.8 -0.26,-0.46 -0.26,-1 0,-0.56 0.3,-1.04 0.3,-0.5 0.74,-0.9 0.46,-0.42 0.92,-0.72 0.48,-0.32 0.82,-0.52 0.14,-0.08 0.3,-0.08 0.32,0 0.6,0.22 0.3,0.22 0.3,0.42 0,0.02 -0.04,0.1 -0.16,0.18 -0.36,0.56 -0.18,0.38 -0.32,0.8 -0.14,0.4 -0.14,0.74 0,0.38 -0.16,0.38 -0.08,0 -0.12,-0.16 -0.04,-0.16 -0.04,-0.3 0,-0.4 0.12,-0.86 0.14,-0.46 0.18,-0.66 -0.24,0 -0.66,0.32 -0.4,0.3 -0.82,0.76 -0.42,0.44 -0.72,0.9 -0.28,0.44 -0.28,0.72 0,0.38 0.26,0.7 0.26,0.3 0.64,0.56 0.4,0.26 0.74,0.56 0.2,-0.08 0.62,-0.28 0.42,-0.22 0.88,-0.44 0.48,-0.24 0.84,-0.4 0.38,-0.16 0.5,-0.16 0.04,0 0.04,0.02 0,0.14 -0.3,0.36 -0.3,0.22 -0.74,0.46 -0.44,0.24 -0.88,0.46 -0.42,0.22 -0.66,0.34 0.06,0.18 0.06,0.36 0,0.42 -0.3,0.68 -0.28,0.26 -0.72,0.4 -0.42,0.12 -0.84,0.12 z m 7.23002,-5.58 q -0.12,0 -0.26,-0.04 -0.12,-0.06 -0.24,-0.12 -0.08,-0.06 -0.08,-0.16 0,-0.18 0.22,-0.44 0.22,-0.28 0.56,-0.48 0.34,-0.2 0.66,-0.2 0.18,0 0.18,0.1 0,0.08 -0.18,0.2 -0.22,0.16 -0.32,0.44 -0.1,0.28 -0.2,0.5 -0.1,0.2 -0.34,0.2 z m -1.08,6.04 q -0.38,0 -0.52,-0.24 -0.14,-0.24 -0.14,-0.74 0,-0.26 0.02,-0.56 0.02,-0.3 0.08,-0.68 0.18,-1.36 0.4,-2.16 0.22,-0.82 0.56,-0.82 0.28,0 0.5,0.32 0.22,0.32 0.3,0.46 -0.14,0.26 -0.38,0.84 -0.22,0.58 -0.4,1.22 -0.18,0.64 -0.18,1.12 0,0.48 0.22,0.48 0.18,0 0.4,-0.2 0.24,-0.2 0.44,-0.44 0.22,-0.24 0.28,-0.34 0.68,-1.02 0.86,-1.56 0.2,-0.54 0.38,-0.54 0.08,0 0.08,0.12 0,0.08 -0.04,0.18 -0.02,0.08 -0.06,0.22 -0.12,0.32 -0.38,0.88 -0.26,0.54 -0.64,1.1 -0.36,0.56 -0.82,0.96 -0.44,0.38 -0.96,0.38 z m 5.74999,0.24 q -0.64,0 -0.88,-0.3 -0.24,-0.3 -0.24,-0.8 0,-0.64 0.06,-1.64 0.06,-1 0.06,-1.92 0,-1.04 -0.12,-1.5 -0.12,-0.46 -0.46,-0.46 -0.08,0 -0.18,0.04 -0.1,0.04 -0.2,0.04 -0.22,0 -0.22,-0.16 0,-0.08 0.26,-0.16 0.26,-0.1 0.58,-0.16 0.34,-0.06 0.58,-0.06 0.38,0 0.56,0.08 0.2,0.08 0.26,0.4 0.08,0.3 0.08,1.02 0,0.9 -0.1,2.12 -0.08,1.22 -0.2,2.22 0.12,-0.52 0.48,-1.24 0.36,-0.74 0.82,-1.52 0.48,-0.8 0.94,-1.48 0.46,-0.7 0.78,-1.18 0.34,-0.48 0.4,-0.56 0.26,-0.34 0.58,-0.34 0.28,0 0.46,0.18 0.18,0.16 0.18,0.26 -0.02,0.14 -0.32,0.38 -0.28,0.22 -0.56,0.38 -0.34,0.18 -0.78,0.68 -0.42,0.48 -0.88,1.14 -0.44,0.66 -0.84,1.4 -0.38,0.74 -0.62,1.44 -0.22,0.7 -0.22,1.22 0,0.08 0,0.16 0.02,0.06 0.02,0.14 0,0.18 -0.28,0.18 z m 7.45001,-0.32 q -0.72,0 -1.06,-0.46 -0.34,-0.48 -0.34,-1.16 0,-0.72 0.34,-1.76 0.34,-1.04 0.72,-1.96 -0.34,0.22 -0.7,0.4 -0.36,0.18 -0.64,0.18 -0.2,0 -0.3,-0.1 -0.08,-0.1 -0.08,-0.22 0,-0.1 0.06,-0.3 0.06,-0.2 0.2,-0.38 0.16,-0.18 0.38,-0.18 0.08,0 0.08,0.06 0,0.02 -0.02,0.04 0,0 0,0.02 -0.02,0.04 -0.02,0.08 0,0.08 0.1,0.08 0.06,0 0.14,-0.02 0.1,-0.02 0.2,-0.08 0.2,-0.1 0.46,-0.24 0.26,-0.16 0.58,-0.32 l 0.3,-0.6 q 0.12,-0.22 0.28,-0.3 0.16,-0.1 0.3,-0.1 0.22,0 0.38,0.08 0.18,0.06 0.32,0.16 0.22,-0.1 0.46,-0.18 0.26,-0.1 0.5,-0.14 0.76,-0.28 1.58,-0.44 0.82,-0.18 1.62,-0.18 0.44,0 0.9,0.12 0.46,0.12 0.46,0.38 0,0.08 -0.16,0.08 -0.32,0 -0.74,-0.08 -0.4,-0.08 -0.8,-0.08 -0.5,0 -0.96,0.06 -0.46,0.04 -0.86,0.14 0.32,0.14 0.52,0.48 0.22,0.34 0.22,0.86 0,0.56 -0.28,1.34 -0.26,0.78 -0.72,1.6 -0.44,0.82 -1.02,1.54 -0.58,0.7 -1.2,1.14 -0.62,0.44 -1.2,0.44 z m 0.22,-0.42 q 0.42,0 0.86,-0.38 0.46,-0.38 0.9,-0.96 0.44,-0.58 0.78,-1.2 0.16,-0.28 0.36,-0.76 0.22,-0.48 0.36,-1.02 0.16,-0.54 0.16,-0.98 0,-0.4 -0.18,-0.66 -0.16,-0.28 -0.62,-0.28 -0.22,0 -0.56,0.12 -0.34,0.12 -0.72,0.28 -0.08,0.08 -0.16,0.18 -0.06,0.08 -0.1,0.18 -0.38,0.7 -0.76,1.56 -0.38,0.84 -0.64,1.64 -0.24,0.8 -0.24,1.4 0,0.88 0.56,0.88 z"
       id="text1"
       transform="scale(0.26458333)"
       aria-label="Espressivo" />
  </g>
</svg>
